/* XPM */
static char * coll_xpm[] = {
"64 64 201 2",
"  	c None",
". 	c #684330",
"+ 	c #714935",
"@ 	c #9A7659",
"# 	c #A07D5E",
"$ 	c #917053",
"% 	c #764F3A",
"& 	c #8A684C",
"* 	c #9E7B5C",
"= 	c #5D3826",
"- 	c #866549",
"; 	c #77513B",
"> 	c #8E6D50",
", 	c #9D7B5C",
"' 	c #997659",
") 	c #5F3B29",
"! 	c #6D4532",
"~ 	c #917052",
"{ 	c #5C3926",
"] 	c #9D7A5C",
"^ 	c #76503A",
"/ 	c #5A3524",
"( 	c #6C4431",
"_ 	c #724A36",
": 	c #552E1E",
"< 	c #6E4633",
"[ 	c #9A7759",
"} 	c #5F3A28",
"| 	c #714A35",
"1 	c #997658",
"2 	c #5C3826",
"3 	c #987558",
"4 	c #6E4632",
"5 	c #89674C",
"6 	c #5E3927",
"7 	c #89674B",
"8 	c #927053",
"9 	c #593523",
"0 	c #593423",
"a 	c #704834",
"b 	c #916F52",
"c 	c #754F3A",
"d 	c #977457",
"e 	c #9D7A5B",
"f 	c #6D5A49",
"g 	c #69584A",
"h 	c #98785B",
"i 	c #987557",
"j 	c #6D5A4A",
"k 	c #68584A",
"l 	c #A3A3A3",
"m 	c #714835",
"n 	c #846348",
"o 	c #88664B",
"p 	c #8C6B4F",
"q 	c #9B785A",
"r 	c #8F6E51",
"s 	c #8C6B4E",
"t 	c #754E39",
"u 	c #5E3A28",
"v 	c #77503A",
"w 	c #F9F9F9",
"x 	c #502818",
"y 	c #4F2617",
"z 	c #502717",
"A 	c #512919",
"B 	c #512818",
"C 	c #4D2415",
"D 	c #5C3927",
"E 	c #8D6C4F",
"F 	c #6D4531",
"G 	c #9F7C5D",
"H 	c #623F2C",
"I 	c #714834",
"J 	c #A4A4A4",
"K 	c #5B3624",
"L 	c #947255",
"M 	c #613E2C",
"N 	c #A6A6A6",
"O 	c #FCFCFC",
"P 	c #89684C",
"Q 	c #5A3624",
"R 	c #957356",
"S 	c #552D1D",
"T 	c #6D4632",
"U 	c #A8A8A8",
"V 	c #A7A7A7",
"W 	c #957255",
"X 	c #B97325",
"Y 	c #8A694D",
"Z 	c #A17E5E",
"` 	c #A17E5F",
" .	c #A9A9A9",
"..	c #F8F8F8",
"+.	c #957256",
"@.	c #FFF3CE",
"#.	c #FFF9E7",
"$.	c #FFEDCC",
"%.	c #4E2515",
"&.	c #4E2415",
"*.	c #4D2314",
"=.	c #AAAAAA",
"-.	c #5B3725",
";.	c #FFE0AA",
">.	c #906E51",
",.	c #734B36",
"'.	c #562F1E",
").	c #724B36",
"!.	c #ACACAC",
"~.	c #ABABAB",
"{.	c #87654A",
"].	c #77503B",
"^.	c #997558",
"/.	c #AFAFAF",
"(.	c #FADAA2",
"_.	c #DBB43B",
":.	c #F5CA40",
"<.	c #B1B1B1",
"[.	c #856449",
"}.	c #B59122",
"|.	c #B3B3B3",
"1.	c #F3CE8B",
"2.	c #EDC587",
"3.	c #502718",
"4.	c #B5B5B5",
"5.	c #FDDDA3",
"6.	c #E2B36C",
"7.	c #613E2B",
"8.	c #DB9F48",
"9.	c #B0B0B0",
"0.	c #B8B8B8",
"a.	c #F7DEB2",
"b.	c #F4A030",
"c.	c #CD7909",
"d.	c #684331",
"e.	c #BABABA",
"f.	c #927255",
"g.	c #5C3725",
"h.	c #937356",
"i.	c #6E5A49",
"j.	c #69594A",
"k.	c #763709",
"l.	c #BDBDBD",
"m.	c #6E5B4B",
"n.	c #DBB273",
"o.	c #B9B9B9",
"p.	c #CF9544",
"q.	c #7B553E",
"r.	c #917154",
"s.	c #C2C2C2",
"t.	c #6C091F",
"u.	c #4A2516",
"v.	c #D32158",
"w.	c #674230",
"x.	c #704835",
"y.	c #81001A",
"z.	c #C9C9C9",
"A.	c #EA9C33",
"B.	c #FAAE3A",
"C.	c #CACACA",
"D.	c #E59223",
"E.	c #CF720B",
"F.	c #8D6C50",
"G.	c #562E1E",
"H.	c #593321",
"I.	c #593322",
"J.	c #AA5B1E",
"K.	c #552D1E",
"L.	c #5A3523",
"M.	c #4D2515",
"N.	c #704935",
"O.	c #4E2516",
"P.	c #6F5C4B",
"Q.	c #97775A",
"R.	c #987457",
"S.	c #705C4B",
"T.	c #685849",
"U.	c #98775A",
"V.	c #9F7C5E",
"W.	c #8E6C50",
"X.	c #76513B",
"Y.	c #704936",
"Z.	c #67422F",
"`.	c #724A35",
" +	c #6A5647",
".+	c #8A6B50",
"++	c #896B50",
"@+	c #6B4431",
"#+	c #967356",
"$+	c #836449",
"%+	c #78523B",
"&+	c #593422",
"*+	c #937054",
"=+	c #826449",
"-+	c #764F39",
";+	c #512819",
">+	c #522919",
",+	c #4F2717",
"'+	c #512918",
")+	c #906F52",
"!+	c #754F39",
". + @ # # $ % + & * = - ; & > , # $ % + ' ) ! & > , # ~ ; + @ ~ { ! & > ] # ~ ^ + ' ~ / ( + @ # # $ % + _ : < + ' # # ~ ; + [ } ",
". | @ # # $ % + 1 # 2 - ; & > , # $ % + ' ) ! & > , # ~ ; + @ ~ { ! & > ] # ~ ^ + ' ~ / ( | @ # # $ % + 3 ) 4 5 ] # ~ > ; + [ 6 ",
". 7 , # 8 > % + 1 8 9 - ; & > , # $ % + ' ) ! & > , # ~ ; + @ ~ { ! & > ] # ~ ^ + ' ~ / ( 7 , # 8 > % + ' ) ! & ] # ~ > ; + [ 6 ",
". & , # $ > % + 1 $ 0 - ; & > , # $ % + ' ) ! & > , # ~ ; a @ ~ { ! & > ] # ~ ^ + ' ~ / ( & , # $ > % + ' ) ! & , # b > ; + [ 6 ",
". & , # $ > % + 1 $ 0 - ; & > , # $ % _ ' ) ! & > , # ~ ; ' # ~ { ! & > ] # ~ ^ + ' ~ / ( & , # $ > % + ' ) ! & > , # ~ ; + [ 6 ",
". & > , # $ % + 1 $ 0 - ; & > , # $ c d # ) ! & > e # ~ ; 3 # ~ { ! & > ] # ~ ^ _ ' ~ / ( & > , # $ % + ' ) ! & > , # ~ ; + [ 6 ",
". & > , # $ % + 1 $ 0 - ; & > ] # $ f g h ) ! & > > * ~ ; _ [ ~ { ! & > ] # ~ ^ i # ~ / ( & > , # $ % + ' ) ! & > , # ~ ; + [ 6 ",
". & > , # $ % + 1 $ 0 - ; & > > , $ j k h ) ! & > > , ~ ^ + @ ~ { ! & > , # ~ ^ ' # ~ / ( & > , # $ % + l ) ! & > , # ~ ; + [ 6 ",
". & > , # $ % + 1 $ 0 - ; & > > , $ ^ + ' ) ! & > > , ~ > ^ @ ~ { ! & > > , ~ ^ m 1 ~ / ( & > , # $ % + l ) ! & > , # ~ ; + [ 6 ",
". & > , # $ % + 1 $ 0 n % o p p q r s t d u ! & > > , ~ > ^ @ ~ { ! & > > , ~ v + ' ~ / ( & > , # $ l l w l l & > , # ~ ; + [ 6 ",
". & > , # $ % + 1 $ 9 x y z z z A A A y B C ! & > > , ~ > ^ @ $ D ! & > > , ~ E ^ ' ~ / ( & > , # $ l l w l l & > , # ~ ; + [ 6 ",
". & > , # $ % + 1 $ l F + 3 G G b ^ + a 3 ) ! & > > , ~ > ^ [ # H ! & > > , ~ > l ' ~ / ( l > , # $ % + l ) ! & > , # ~ ; + [ 6 ",
". & > , # $ % + 1 $ l ! + ' # # $ ^ + @ # ) 4 & > > , ~ > ^ I ' H ! & > > , ~ l w l $ / ( & > , # $ % + l ) ! & > , # ~ ; + [ 6 ",
". & > , # $ % + 1 $ J ! 5 ] # $ > ^ + @ 8 K L b > > , ~ > ^ _ 3 M ! & > > , ~ > l 3 # 6 ( & > , # l % + ' ) ! & l , # ~ ; + [ 6 ",
". & > , # $ % + 1 N O N P , # ~ > ^ + @ $ Q R ~ > > , ~ > v P ; S T & > > , ~ > ; _ [ 6 ( & > , # $ % + ' ) ! l w l # ~ ; + [ 6 ",
". & > , # $ U U U w w w V V V b > ^ + @ $ Q V ~ > > , ~ > > > ^ S W b > > , ~ > ; X X X X X X X X X X X 1 ) T Y J * Z $ ; 1 ` 6 ",
". & > , # $ % @ #  ... .P > , # $ ^ + @ $ U w U > > , $ > > > ^ S +.~ > > , ~ X X @.#.#.#.#.#.#.@.@.@.$.X X X C %.&.C %.C *.*.C ",
". & > ] # $ % 3 # $ =.! P > , # =.^ + @ $ -.=.~ > > ] # ~ > E v S +.~ > > X X $.@.#.#.#.#.#.#.#.@.@.@.$.$.$.;.X d * * >.^ + ,.'.",
". & > > , $ % ).' $ !.! P > , # $ ^ + @ ~.-.{.> > > > ] $ > ].5 2 +.~ > X $.$.$.@.#.#.#.#.#.#.#.@.@.@.$.$.$.;.X ' # # ~ ; + ^.u ",
". & > > , $ % + 1 $ /.! P > , # $ ^ + @ $ Q - > > > > > > ^ & > { R ~ X (.$.$.$.@._.:.:._._.#.#.@.@.@.$.$.;.;.X ] # # ~ ; + [ 6 ",
". & > > , <.> ^ 1 $ 0 ! P > , # X X X X X X X X X X X X b % P E { [.X (.(.$.$.}._.#.#.#.#.#._._._.@.@.$.$.;.;.X ] # # ~ ; + !.6 ",
". & > > , |.> ^ 1 $ 0 ! P X X X 1.1.1.1.1.1.1.2.2.2.2.2.X X 3.x %.[.X (.(.$.}.$.@.#.#.#._.#.@.@.@._.@.$.$.;.;.X e # # ~ ; + [ 6 ",
". & 4.4.4.w 4.4.1 8 X X X 5.5.5.1.1.1.1.1.1.1.2.2.2.2.2.6.6.X d 7.X (.(.(.}.$.$.@.#.#._._._._._._.@.}.$.$.;.8.X > , # 9.; + [ } ",
". & > > , 0.> ^ 1 X a.a.5.5.5.5.1.b.b.b.b.b.c.c.c.c.c.c.6.6.6.X X X ;.;.}.$.}.}._._._.#.#._.@.@._.@.$.}.;.;.8.1.X , # ~ ; + [ } ",
"d.& > > , e.> ^ 1 X a.a.5.5.5.b.b.1.1.1.1.1.1.1.2.2.2.2.c.c.6.6.6.X ;.;.}.$.$.$._.#.:.#.#._._._.@.@.$.}.;.;.8.1.X , # ~ ; + [ } ",
"f.~ > > , e.> ^ 3 X a.a.5.5.5.b.b.1.1.1.1.1.1.1.2.2.2.2.c.c.6.6.6.X ;.;.}.$.$.$._.#.:.#.#._._._.@.@.$.}.;.;.8.1.X , # ~ ; + [ g.",
"h.~ > > , ~ > i.j.h X a.5.5.b.5.1.1.1.1.1.1.1.1.2.2.2.2.6.c.6.6.6.X ;.;.}.$.$.@._._.#.#.#.#._._.@.@.$.}.;.;.8.1.X k.# ~ ; + [ g.",
"h.~ > > , ~ l.m.k.k.X a.a.5.b.5.5.1.1.1.1.1.1.1.2.2.2.2.6.c.6.6.6.X ;.;.}.$.$.@.@._.#.#.#.#._._.@.@.$.}.;.;.8.X n.k.# b o.o.[ g.",
"h.~ > > , $ > > k.p.X a.a.5.b.5.5.1.1.1.1.1.1.1.2.2.2.2.2.c.6.6.6.X ;.;.}.$.$.@._.#.:.#.#._.@.@._.$.$.}.;.8.1.X n.k.# # q.+ [ g.",
"r.s.p p q * r p k.p.p.X a.5.5.b.5.1.1.1.1.1.1.1.2.2.2.2.2.c.6.6.6.X ;.;.;.}.$.@._._.:.:._._._._._.$.}.;.;.8.1.X n.k.t.# q.+ [ 6 ",
"u.A z z z A A t.t.k.p.X a.a.5.b.5.5.5.1.1.1.1.1.2.2.2.2.2.c.6.6.6.X ;.;.;.$.}.@.#.#.#.:._.#.@.@.@.}.$.;.;.8.1.X k.v.t.8 ; + [ 6 ",
"w.x.1 G G b t.v.t.k.p.X a.a.5.b.5.5.5.1.1.1.1.1.2.2.2.2.2.c.6.6.6.X ;.;.;.$.$.}._.#.#.#._.#._._.}.$.;.;.;.8.X n.k.v.t.# q.+ [ 6 ",
". + @ # # $ t.v.y.k.p.p.X a.5.5.b.5.5.1.1.1.1.1.1.2.2.2.2.c.6.6.6.X ;.;.;.$.$.@.#._.:.:._._.@.@.@.$.;.;.;.8.X n.k.v.t.b ; + [ 6 ",
". 5 , z.z.> t.v.v.y.k.p.X a.a.5.b.5.5.1.1.1.1.1.1.2.2.2.2.c.6.6.6.X ;.;.;.$.$.@.#.#.#.#.#.@.@.@.@.$.;.;.;.8.X n.k.v.t.~ ; 3 # 6 ",
". & , # $ > % t.v.y.k.p.X a.a.5.b.5.5.5.1.1.1.1.1.2.2.2.2.c.6.6.6.X ;.;.;.$.$.@.#.#.#.#.#.@.@.@.$.;.;.;.8.X n.k.v.v.t.~ ; 3 # 6 ",
". & * # ~ > % t.v.y.k.p.p.X a.5.b.5.5.5.1.1.1.1.1.2.2.2.2.c.6.6.6.X ;.;.;.$.$.A.B.B.#.#.#.@.@.@.$.;.;.;.8.X n.k.v.t.* ~ ; + [ 6 ",
". & > C.C.$ % t.v.v.y.k.p.X a.5.5.b.b.5.1.b.b.b.D.c.c.c.2.c.6.6.6.X ;.;.;.E.E.@.#.#.#.#.#.@.@.@.$.;.;.;.8.X n.k.v.t., ~ ; + [ 6 ",
". & C.w w C.% + t.v.y.k.p.X a.a.5.b.b.b.b.1.1.1.1.1.2.2.c.c.6.6.6.X ;.;.;.$.$.A.B.B.B.B.B.@.@.@.$.;.;.;.8.X k.y.v.t., ~ F.^ [ 6 ",
". & > C.C.$ % + t.v.y.k.p.X a.a.5.5.5.5.5.b.b.b.D.c.c.2.2.2.6.6.6.X ;.;.(.E.A.@.#.#.#.#.#.A.E.E.$.;.;.;.8.n.k.v.v.t., ~ > ^ [ 6 ",
". & > , # $ % + t.v.v.y.k.p.X a.5.5.5.b.b.1.1.1.1.1.2.2.2.2.6.6.6.X ;.;.(.$.$.A.B.B.B.B.A.@.$.$.;.;.;.8.X n.k.v.t.> , ~ > ^ [ 6 ",
". & > , # $ % + t.v.v.y.k.p.X a.5.5.5.b.b.1.1.1.1.1.2.2.2.2.6.6.6.X ;.;.(.$.$.A.B.B.B.B.A.@.$.$.;.;.;.8.X n.k.v.t.> , ~ > ^ @ u ",
". & > , # $ % + 1 t.v.y.k.p.X a.5.5.5.5.5.1.b.b.b.c.c.c.2.2.6.6.6.X ;.;.(.E.A.#.#.#.#.#.#.A.E.E.;.;.;.8.X k.y.v.t.> , ~ > ^ _ '.",
". & > , # $ % + 1 t.v.y.k.p.X a.a.5.5.5.b.b.1.1.1.1.1.2.c.c.6.6.6.X ;.;.(.$.$.#.#.#.#.#.#.@.$.$.;.;.;.8.n.k.v.v.t.> , ~ > ^ | G.",
". & > , # $ % + 1 t.v.v.y.k.p.X a.5.5.5.5.5.1.1.1.1.1.2.2.2.6.6.6.X ;.;.$.$.$.8.8.8.8.8.8.8.8.8.;.;.;.8.n.k.v.t.> > , ~ > ^ & H.",
". & > , # $ % + 1 $ t.v.y.k.p.X a.a.a.5.5.5.X X X X X X X X 6.6.6.X ;.;.$.8.8.n.n.n.n.n.X X ;.;.8.8.;.8.n.k.v.t.> > , ~ > > > I.",
". & > , # $ % + 1 $ t.v.y.k.p.X a.a.a.5.X X p.p.p.p.p.p.p.p.X X X X X X X k.k.k.k.k.k.n.n.n.X X 1.1.8.X k.v.v.t.> > , $ > > > I.",
". & > , # $ % _ ' $ t.v.v.y.k.p.X X X X p.p.J.J.J.k.k.k.k.k.J.p.p.p.p.k.k.k.J.J.J.J.J.k.k.k.n.n.X X X n.k.v.t.~ > > ] # ~ > > H.",
". & > , # $ % 1 # $ 0 t.v.y.k.p.X p.p.p.J.J.k.k.k.y.y.y.y.y.k.k.k.k.k.y.y.y.k.k.k.k.J.J.J.J.k.k.k.n.X n.k.v.t.> > > > , $ > % K.",
". & > ] # $ % 1 # $ 0 t.v.y.k.p.J.J.J.k.k.k.y.y.y.y.y.y.y.y.y.y.y.y.y.y.y.y.y.y.y.y.k.k.k.J.J.J.J.k.n.n.k.v.t.E E E E E F.% & L.",
". & > > , $ % _ ' $ 0 t.v.v.y.k.k.k.k.y.y.y.y.y.y.v.v.v.v.y.y.y.y.y.y.y.v.v.v.y.y.y.y.y.y.k.k.k.k.J.k.k.v.v.t.3.x x x A x y 3.M.",
". & > > , $ ^ + 1 $ 0 ! t.v.y.k.y.y.y.y.y.y.y.v.v.v.v.t.t.v.v.v.v.v.v.v.t.t.v.v.v.v.y.y.y.y.y.y.y.k.k.k.v.t.F N.d * * r ^ a + G.",
". & > > , ~ > % 1 $ 0 ! t.v.v.y.y.y.y.y.v.v.v.v.t.t.t.# 8 t.t.t.t.t.t.t.> , t.t.t.v.v.v.v.y.y.y.y.y.y.y.v.t.T + 1 # # ~ ].+ @ u ",
". & > > , ~ > ^ 1 $ 0 ! P t.v.y.y.v.v.v.v.t.t.t.%.O.C C C C *.O.C +.~ > > , ~ > > t.t.t.v.v.v.v.v.y.y.v.v.t.! & , # b > P.k Q.6 ",
". & > > , ~ > ^ 1 8 9 ! P t.v.v.v.t.t.t.t.K T + d * * >.^ + + R.7.+.b > > e # ~ > ; _ : t.t.t.t.v.v.v.v.t.) ! & ] # ~ > S.T.U.6 ",
". & > > , ~ > ^ 3 # = ! P t.v.v.v.t.t.t.t.K T | ' # # G q.+ d V.H {.> > > > , ~ W.^ P L.t.t.t.t.v.v.v.v.t.) ! & ] # ~ > X.Y.[ 6 ",
"Z.& > > , ~ > ^ `.@ = ! P > t.t.t.^ + @ $ K ! & ] # ~ > ;  +g .+{ W b > > > > > ; + Y / ( & > > t.t.t.v.t.) ! & > , # ~ ; + [ 6 ",
"h.~ > > , ~ > ^ + 1 = ! P > , # $ ^ + @ $ K ! & ] # ~ > ;  +g ++{ +.~ > > > * ~ ; + Y / ( & > > , ~ > t.t.) ! & > , # ~ ; + [ 6 ",
"h.~ > > , ~ > v 5 ; S ! P > , # $ ^ _ @ $ K ! & e # $ > ; + 1 b { +.~ > > > , ~ ; + Y / ( & > > , ~ > ^ ' ) ! & > , # ~ ; + [ 6 ",
"h.~ > > , ~ > E > ^ S ! P > , # $ ^ 3 # $ K ! & > , # ~ ; + @ ~ { +.~ > > > , ~ E ^ & L.( & > > , ~ > ^ 3 ) 4 & > , # ~ ; + [ 6 ",
"h.~ > > , ~ > > > ^ S ! P > * # $ ^ [ # $ K ! & > , # ~ ; + @ ~ { W # ~ > > , ~ > ^ + : @+& > > , ~ > ^ _ : 4 & > , # ~ ; + [ 6 ",
"h.~ > > ] # ~ > > v S ! P > > , $ ^ I ' $ K ! & > , # ~ ; + @ ~ { W # $ > , # ~ > v + K.#+~ > > , ~ > ^ + K.4 & > , # ~ ; + [ 6 ",
"$+> > > > ] b E %+& &+! P > > , $ ; + @ $ K ! & > , # ~ ; + @ ~ { *+* * ] * r s s s t S #+~ > > , ~ > v 5 L.( & > , # ~ ; + [ 6 ",
"=+> > > > r > ].7 > 0 ! P > > , $ E -+@ $ K ! & > , # ~ ; + @ ~ D z ;+>+B x A ,+'+x x O.#+~ > > , ~ > E > / ( & > , # ~ ; + [ 6 ",
"=+> > > > ] ~ ^ P > 0 ! P > > , $ > % @ $ K ! & > , # ~ ; + @ ~ { L G )+E F.!++ + 5 !+S #+~ > > , ~ > > > / ( & > , # ~ ; + [ 6 "};
