/* XPM */
static char * floor_xpm[] = {
"64 64 173 2",
"  	c None",
". 	c #684330",
"+ 	c #714935",
"@ 	c #9A7659",
"# 	c #A07D5E",
"$ 	c #917053",
"% 	c #764F3A",
"& 	c #8A684C",
"* 	c #9E7B5C",
"= 	c #5D3826",
"- 	c #866549",
"; 	c #77513B",
"> 	c #8E6D50",
", 	c #9D7B5C",
"' 	c #997659",
") 	c #5F3B29",
"! 	c #6D4532",
"~ 	c #917052",
"{ 	c #5C3926",
"] 	c #9D7A5C",
"^ 	c #76503A",
"/ 	c #5A3524",
"( 	c #6C4431",
"_ 	c #724A36",
": 	c #552E1E",
"< 	c #6E4633",
"[ 	c #9A7759",
"} 	c #5F3A28",
"| 	c #714A35",
"1 	c #997658",
"2 	c #5C3826",
"3 	c #987558",
"4 	c #6E4632",
"5 	c #89674C",
"6 	c #5E3927",
"7 	c #89674B",
"8 	c #927053",
"9 	c #593523",
"0 	c #593423",
"a 	c #704834",
"b 	c #916F52",
"c 	c #754F3A",
"d 	c #977457",
"e 	c #9D7A5B",
"f 	c #6D5A49",
"g 	c #69584A",
"h 	c #98785B",
"i 	c #987557",
"j 	c #6D5A4A",
"k 	c #68584A",
"l 	c #714835",
"m 	c #846348",
"n 	c #88664B",
"o 	c #8C6B4F",
"p 	c #9B785A",
"q 	c #8F6E51",
"r 	c #8C6B4E",
"s 	c #754E39",
"t 	c #5E3A28",
"u 	c #77503A",
"v 	c #502818",
"w 	c #4F2617",
"x 	c #502717",
"y 	c #512919",
"z 	c #512818",
"A 	c #4D2415",
"B 	c #5C3927",
"C 	c #8D6C4F",
"D 	c #6D4531",
"E 	c #9F7C5D",
"F 	c #623F2C",
"G 	c #714834",
"H 	c #5B3624",
"I 	c #947255",
"J 	c #613E2C",
"K 	c #89684C",
"L 	c #5A3624",
"M 	c #957356",
"N 	c #552D1D",
"O 	c #6D4632",
"P 	c #957255",
"Q 	c #8A694D",
"R 	c #A17E5E",
"S 	c #A17E5F",
"T 	c #5B3725",
"U 	c #967356",
"V 	c #957256",
"W 	c #4E2515",
"X 	c #4E2415",
"Y 	c #4D2314",
"Z 	c #8D6C50",
"` 	c #552D1E",
" .	c #6C4531",
"..	c #906E51",
"+.	c #734B36",
"@.	c #562F1E",
"#.	c #724B36",
"$.	c #87654A",
"%.	c #77503B",
"&.	c #997558",
"*.	c #856449",
"=.	c #5B3625",
"-.	c #502718",
";.	c #704935",
">.	c #613E2B",
",.	c #8D6B4F",
"'.	c #88674B",
").	c #5A3523",
"!.	c #4E2516",
"~.	c #5F3C29",
"{.	c #684331",
"].	c #6C4532",
"^.	c #927255",
"/.	c #9F7D5E",
"(.	c #5C3725",
"_.	c #937356",
":.	c #6E5A49",
"<.	c #69594A",
"[.	c #6A5546",
"}.	c #8A6B50",
"|.	c #6E5B4B",
"1.	c #6A5647",
"2.	c #67584A",
"3.	c #7B553E",
"4.	c #917154",
"5.	c #4A2516",
"6.	c #86654A",
"7.	c #8E6C4F",
"8.	c #78523C",
"9.	c #674230",
"0.	c #704835",
"a.	c #754F39",
"b.	c #856549",
"c.	c #937154",
"d.	c #9B795A",
"e.	c #9F7C5E",
"f.	c #9C7A5B",
"g.	c #906F52",
"h.	c #542D1D",
"i.	c #4F2516",
"j.	c #6E4733",
"k.	c #8A684D",
"l.	c #947155",
"m.	c #562E1E",
"n.	c #7A543D",
"o.	c #593321",
"p.	c #593322",
"q.	c #5D3927",
"r.	c #4D2515",
"s.	c #8F6E50",
"t.	c #6F5C4B",
"u.	c #97775A",
"v.	c #987457",
"w.	c #705C4B",
"x.	c #685849",
"y.	c #98775A",
"z.	c #8E6C50",
"A.	c #76513B",
"B.	c #704936",
"C.	c #67422F",
"D.	c #724A35",
"E.	c #896B50",
"F.	c #6B4431",
"G.	c #836449",
"H.	c #78523B",
"I.	c #593422",
"J.	c #937054",
"K.	c #826449",
"L.	c #764F39",
"M.	c #512819",
"N.	c #522919",
"O.	c #4F2717",
"P.	c #512918",
". + @ # # $ % + & * = - ; & > , # $ % + ' ) ! & > , # ~ ; + @ ~ { ! & > ] # ~ ^ + ' ~ / ( + @ # # $ % + _ : < + ' # # ~ ; + [ } ",
". | @ # # $ % + 1 # 2 - ; & > , # $ % + ' ) ! & > , # ~ ; + @ ~ { ! & > ] # ~ ^ + ' ~ / ( | @ # # $ % + 3 ) 4 5 ] # ~ > ; + [ 6 ",
". 7 , # 8 > % + 1 8 9 - ; & > , # $ % + ' ) ! & > , # ~ ; + @ ~ { ! & > ] # ~ ^ + ' ~ / ( 7 , # 8 > % + ' ) ! & ] # ~ > ; + [ 6 ",
". & , # $ > % + 1 $ 0 - ; & > , # $ % + ' ) ! & > , # ~ ; a @ ~ { ! & > ] # ~ ^ + ' ~ / ( & , # $ > % + ' ) ! & , # b > ; + [ 6 ",
". & , # $ > % + 1 $ 0 - ; & > , # $ % _ ' ) ! & > , # ~ ; ' # ~ { ! & > ] # ~ ^ + ' ~ / ( & , # $ > % + ' ) ! & > , # ~ ; + [ 6 ",
". & > , # $ % + 1 $ 0 - ; & > , # $ c d # ) ! & > e # ~ ; 3 # ~ { ! & > ] # ~ ^ _ ' ~ / ( & > , # $ % + ' ) ! & > , # ~ ; + [ 6 ",
". & > , # $ % + 1 $ 0 - ; & > ] # $ f g h ) ! & > > * ~ ; _ [ ~ { ! & > ] # ~ ^ i # ~ / ( & > , # $ % + ' ) ! & > , # ~ ; + [ 6 ",
". & > , # $ % + 1 $ 0 - ; & > > , $ j k h ) ! & > > , ~ ^ + @ ~ { ! & > , # ~ ^ ' # ~ / ( & > , # $ % + ' ) ! & > , # ~ ; + [ 6 ",
". & > , # $ % + 1 $ 0 - ; & > > , $ ^ + ' ) ! & > > , ~ > ^ @ ~ { ! & > > , ~ ^ l 1 ~ / ( & > , # $ % + ' ) ! & > , # ~ ; + [ 6 ",
". & > , # $ % + 1 $ 0 m % n o o p q r s d t ! & > > , ~ > ^ @ ~ { ! & > > , ~ u + ' ~ / ( & > , # $ % + ' ) ! & > , # ~ ; + [ 6 ",
". & > , # $ % + 1 $ 9 v w x x x y y y w z A ! & > > , ~ > ^ @ $ B ! & > > , ~ C ^ ' ~ / ( & > , # $ % + ' ) ! & > , # ~ ; + [ 6 ",
". & > , # $ % + 1 $ 0 D + 3 E E b ^ + a 3 ) ! & > > , ~ > ^ [ # F ! & > > , ~ > ; ' ~ / ( & > , # $ % + ' ) ! & > , # ~ ; + [ 6 ",
". & > , # $ % + 1 $ 0 ! + ' # # $ ^ + @ # ) 4 & > > , ~ > ^ G ' F ! & > > , ~ > ; ' $ / ( & > , # $ % + ' ) ! & > , # ~ ; + [ 6 ",
". & > , # $ % + 1 $ 0 ! 5 ] # $ > ^ + @ 8 H I b > > , ~ > ^ _ 3 J ! & > > , ~ > ; 3 # 6 ( & > , # $ % + ' ) ! & > , # ~ ; + [ 6 ",
". & > , # $ % + 1 $ 0 ! K , # ~ > ^ + @ $ L M ~ > > , ~ > u K ; N O & > > , ~ > ; _ [ 6 ( & > , # $ % + ' ) ! & > , # ~ ; + [ 6 ",
". & > , # $ % l 1 $ 0 ! K , # b > ^ + @ $ L M ~ > > , ~ > > > ^ N P b > > , ~ > ; l [ 6 ( & > , # $ % l 1 ) O Q > * R $ ; 1 S 6 ",
". & > , # $ % @ # $ 0 ! K > , # $ ^ + @ $ T U ~ > > , $ > > > ^ N V ~ > > , ~ > ; & % N ( & > , # $ % @ # ) A A W X A W A Y Y A ",
". & > ] # $ % 3 # $ 0 ! K > , # $ ^ + @ $ T M ~ > > ] # ~ > C u N V ~ > > , ~ > Z > % ` ( & > ] # $ % 3 # )  .+ d * * ..^ + +.@.",
". & > > , $ % #.' $ 0 ! K > , # $ ^ + @ $ T $.> > > > ] $ > %.5 2 V ~ > > , ~ > > > % ` ( & > > , $ % #.' ) O | ' # # ~ ; + &.t ",
". & > > , $ % + 1 $ 0 ! K > , # $ ^ + @ $ L - > > > > > > ^ & > { M ~ > > , # ~ > > % N ( & > > , $ % + ' ) ! & ] # # ~ ; + [ 6 ",
". & > > , ~ > ^ 1 $ 0 ! K > , # $ ^ + @ $ L *.C C C C e b % K C { *.> > > > , ~ > ^ Q / ( & > > , ~ > ^ ' ) ! & ] # # ~ ; + [ 6 ",
". & > > , ~ > ^ 1 $ 0 ! K > , # $ ^ + @ $ =.x -.v v v z -.v -.v W *.> > > > q > ; 5 > / ( & > > , ~ > ^ ' ) ! & e # # ~ ; + [ 6 ",
". & > > , ~ > ^ 1 8 9 ! K > , # $ ^ + @ $ H D ;.d * * q ^ ;.+ d >.m ,.,.,.,.p ..^ '.C ).( & > > , ~ > ^ ' ) ! & > , # ~ ; + [ } ",
". & > > , ~ > ^ 1 # = ! K > , # $ ^ + @ $ H O + 1 # # ~ ; + 1 # F !.!.A A A !.!.A !.A A ( & > > , ~ > ^ @ ~.4 & > , # ~ ; + [ } ",
"{.& > > , ~ > ^ 1 # = ! K > , # $ ^ + @ $ H ! & , # b > ; + @ b { ! + @ # # ~ ^ + _ [ 6 ].& > > , ~ > ^ + N 4 & > , # ~ ; + [ } ",
"^.~ > > , ~ > ^ 3 # = ! K > , # $ ^ + @ $ H ! & ] # ~ > ; + @ ~ { ! _ @ # # ~ ^ + d /.6 P ~ > > , ~ > ^ _ : 4 & > , # ~ ; + [ (.",
"_.~ > > , ~ > :.<.h = ! K > , # $ ^ | @ $ H ! & ] # ~ > ; + @ ~ { ! 5 , # 8 > ^ [.<.}./ U ~ > > , ~ > ^ 7 ).( & > , # ~ ; + [ (.",
"_.~ > > , ~ > |.k h = ! K > , # $ ^ 1 # $ H ! & > , # ~ ; + @ ~ { ! & , # ~ > ^ 1.2.}./ U ~ > > , ~ > > > / ( & > , # b ; + [ (.",
"_.~ > > , $ > > ; 1 = ! K > , # $ ^ 1 # $ H ! & > , # ~ ; + @ ~ { ! & ] # $ > ^ + @ ~ / U ~ > > , $ > > > / ( & > , # # 3.+ [ (.",
"4.q o o p * q o r ^ N ! K > > , $ ^ _ @ $ H ! & > , # ~ ; + @ ~ { ! & > , # ~ ^ + ' ~ / M ~ > > e # b > C ).( & > , # # 3.+ [ 6 ",
"5.y x x x y y y y x A ! K > > , $ %.+ @ $ H ! & > , # ~ ; + @ ~ { ! & > ] # ~ ^ + ' ~ / 6.> > > > ] b 7.8.N ! & > , # 8 ; + [ 6 ",
"9.0.1 E E b a.+ a 1 2 ! K > > , $ > % @ $ H ! & > , # ~ ; + @ ~ { ! & > ] # ~ ^ + ' ~ / b.> > > > > > ^ K L ! & > , # # 3.+ [ 6 ",
". + @ # # $ % + ' # = ! K > > , $ > % @ $ H ! & > , # ~ ; + @ ~ { ! & > ] # ~ ^ + ' ~ / U $ > > > , ~ ^ & H ! & > , # b ; + [ 6 ",
". 5 , # 8 > % + 1 8 9 ! K > > , $ > % @ 8 H ! & > , # ~ ; + @ ~ { ! & > ] # ~ ^ + ' ~ / c.] q o o d.q a.n L ! & > , # ~ ; 3 # 6 ",
". & , # $ > % + 1 $ 0 ! K > > , $ > % &.e.) ! & > , # ~ ; + @ ~ { ! & > ] # ~ ^ + ' ~ / v y x x x y y v y A ! & > ] # ~ ; 3 # 6 ",
". & * # ~ > % + 1 $ 0  .K > > , $ > % _ ' ) ! & > , # ~ ; + @ ~ { ! & > ] # ~ ^ + ' ~ / ( 0.1 E E b a.+ a N 4 & > > * ~ ; + [ 6 ",
". & > , # $ % + 1 $ 0 U $ > > , $ > % + 1 ) ! & > , # ~ ; + @ ~ { ! & > ] # ~ ^ + ' ~ / ( + @ # # $ % + ' ~.4 & > > , ~ ; + [ 6 ",
". & > , # $ % + 1 $ 0 U $ > > , $ > ^ K ; N ! & > , # ~ ; _ [ ~ { ! & > ] # ~ ^ + ' ~ / ( 5 , # 8 > % + ' ) ! & > > , ~ Z ^ [ 6 ",
". & > , # $ % + 1 $ 0 U $ > > , $ > C > ; N ! & > , # ~ ; i # ~ { ! & > ] # ~ ^ + ' ~ / ( & , # $ > % + ' ) ! & > > , ~ > ^ [ 6 ",
". & > , # $ % + 1 $ 0 U $ > > , ~ > > > ; N ! & > , # ~ ; @ # ~ { ! & > ] # ~ ^ a 1 ~ / ( & * # ~ > % + ' ) ! & > > , ~ > ^ [ 6 ",
". & > , # $ % + 1 $ 0 P b C C f.e.g.C C ^ h.! & > > , ~ ; a @ ~ { ! & > ] # ~ ^ ' # ~ / ( & > , # $ % + ' ) ! & > > , ~ > ^ @ t ",
". & > , # $ % + 1 $ 9 w -.v v -.z -.-.i.v A ! & > > , ~ ; + @ ~ { ! & > e # ~ ^ 3 # ~ / ( & > , # $ % + ' ) j.k.> > , ~ > ^ _ @.",
". & > , # $ % + 1 $ 0  .a d * * ..% ;.+ d t ! & > > , ~ C ^ @ ~ { ! & > > , ~ ^ _ ' ~ / ( & > , # $ % + ' ) l.b > > , ~ > ^ | m.",
". & > , # $ % + 1 $ 0 ! + 1 # # # n.+ 1 # ) ! & > > , ~ > ^ @ ~ { ! & > > , ~ % + ' ~ / ( & > , # $ % + ' ) M ~ > > , ~ > ^ & o.",
". & > , # $ % + 1 $ 0 ! & , # b > ^ + @ $ L ! & > > , ~ > ^ @ $ B ! & > > , ~ > ; ' ~ / ( & > , # $ % + ' ) M ~ > > , ~ > > > p.",
". & > , # $ % + 1 $ 0 ! K , # ~ > ^ + @ $ H ! & > > , ~ > ^ &./.F ! & > > , ~ > ; ' ~ / ( & > , # $ % + ' ) M ~ > > , $ > > > p.",
". & > , # $ % _ ' $ 0 ! K ] # $ > ^ + @ $ H 4 & > > , ~ > ^ _ [ F ! & > > , ~ > ; ' $ / ( & > , # $ % + ' ) V ~ > > ] # ~ > > o.",
". & > , # $ % 1 # $ 0 ! K > , # $ ^ + @ $ L P ~ > > , ~ > ^ l [ F ! & > > , ~ > ; @ # 6 ( & > , # $ % + ' ) 6.> > > > , $ > % ` ",
". & > ] # $ % 1 # $ 0 ! K > , # $ ^ + @ $ L M ~ > > , ~ > ^ Q % N O & > > , ~ > ; a [ 6 ( & > , # $ % + ' ) *.C C C C C Z % & ).",
". & > > , $ % _ ' $ 0 ! K > , # $ ^ + @ $ L M ~ > > , ~ > Z > ^ N l.b > > , ~ > ; | 1 q.( & > , # $ % + ' ) x -.v v v y v w -.r.",
". & > > , $ ^ + 1 $ 0 ! K > , # $ ^ + @ $ L M ~ > > , $ > > > ^ N V ~ > > , ~ > ; 5 ; : ( & > , # $ % _ ' ) D ;.d * * q ^ a + m.",
". & > > , ~ > % 1 $ 0 ! K > , # $ ^ + @ $ L U $ > > * # 8 > s.^ N V ~ > > , ~ > > > % ` ( & > , # $ % 1 # ) O + 1 # # ~ %.+ @ t ",
". & > > , ~ > ^ 1 $ 0 ! K > , # $ ^ + @ $ =.Y A W !.A A A A Y !.A V ~ > > , ~ > > > % ` ( & > ] # $ % 1 # ) ! & , # b > t.k u.6 ",
". & > > , ~ > ^ 1 8 9 ! K > , # $ ^ + @ $ H O + d * * ..^ + + v.>.V b > > e # ~ > ; _ : ( & > > , $ % _ ' ) ! & ] # ~ > w.x.y.6 ",
". & > > , ~ > ^ 3 # = ! K > , # $ ^ + @ $ H O | ' # # E 3.+ d e.F $.> > > > , ~ z.^ K ).( & > > , $ ^ + ' ) ! & ] # ~ > A.B.[ 6 ",
"C.& > > , ~ > ^ D.@ = ! K > , # $ ^ + @ $ H ! & ] # ~ > ; 1.g }.{ P b > > > > > ; + Q / ( & > > , ~ > % ' ) ! & > , # ~ ; + [ 6 ",
"_.~ > > , ~ > ^ + 1 = ! K > , # $ ^ + @ $ H ! & ] # ~ > ; 1.g E.{ V ~ > > > * ~ ; + Q / ( & > > , ~ > ^ ' ) ! & > , # ~ ; + [ 6 ",
"_.~ > > , ~ > u 5 ; N ! K > , # $ ^ _ @ $ H ! & e # $ > ; + 1 b { V ~ > > > , ~ ; + Q / ( & > > , ~ > ^ ' ) ! & > , # ~ ; + [ 6 ",
"_.~ > > , ~ > C > ^ N ! K > , # $ ^ 3 # $ H ! & > , # ~ ; + @ ~ { V ~ > > > , ~ C ^ & ).( & > > , ~ > ^ 3 ) 4 & > , # ~ ; + [ 6 ",
"_.~ > > , ~ > > > ^ N ! K > * # $ ^ [ # $ H ! & > , # ~ ; + @ ~ { P # ~ > > , ~ > ^ + : F.& > > , ~ > ^ _ : 4 & > , # ~ ; + [ 6 ",
"_.~ > > ] # ~ > > u N ! K > > , $ ^ G ' $ H ! & > , # ~ ; + @ ~ { P # $ > , # ~ > u + ` U ~ > > , ~ > ^ + ` 4 & > , # ~ ; + [ 6 ",
"G.> > > > ] b C H.& I.! K > > , $ ; + @ $ H ! & > , # ~ ; + @ ~ { J.* * ] * q r r r s N U ~ > > , ~ > u 5 ).( & > , # ~ ; + [ 6 ",
"K.> > > > q > %.7 > 0 ! K > > , $ C L.@ $ H ! & > , # ~ ; + @ ~ B x M.N.z v y O.P.v v !.U ~ > > , ~ > C > / ( & > , # ~ ; + [ 6 ",
"K.> > > > ] ~ ^ K > 0 ! K > > , $ > % @ $ H ! & > , # ~ ; + @ ~ { I E g.C Z a.+ + 5 a.N U ~ > > , ~ > > > / ( & > , # ~ ; + [ 6 "};
