/* XPM */
static char * pers_xpm[] = {
"64 64 155 2",
"  	c None",
". 	c #684330",
"+ 	c #714935",
"@ 	c #9A7659",
"# 	c #A07D5E",
"$ 	c #917053",
"% 	c #764F3A",
"& 	c #8A684C",
"* 	c #9E7B5C",
"= 	c #5D3826",
"- 	c #866549",
"; 	c #77513B",
"> 	c #8E6D50",
", 	c #9D7B5C",
"' 	c #997659",
") 	c #5F3B29",
"! 	c #6D4532",
"~ 	c #000000",
"{ 	c #9D7A5C",
"] 	c #917052",
"^ 	c #76503A",
"/ 	c #5A3524",
"( 	c #6C4431",
"_ 	c #724A36",
": 	c #552E1E",
"< 	c #6E4633",
"[ 	c #9A7759",
"} 	c #5F3A28",
"| 	c #714A35",
"1 	c #997658",
"2 	c #5C3826",
"3 	c #6E4D29",
"4 	c #987558",
"5 	c #6E4632",
"6 	c #89674C",
"7 	c #5E3927",
"8 	c #89674B",
"9 	c #927053",
"0 	c #593523",
"a 	c #553416",
"b 	c #593423",
"c 	c #916F52",
"d 	c #754F3A",
"e 	c #2C241C",
"f 	c #846348",
"g 	c #88664B",
"h 	c #8C6B4F",
"i 	c #9B785A",
"j 	c #502818",
"k 	c #4F2617",
"l 	c #502717",
"m 	c #6D4531",
"n 	c #9F7C5D",
"o 	c #E1B75A",
"p 	c #D5A029",
"q 	c #F2DEC9",
"r 	c #89684C",
"s 	c #E2C1B1",
"t 	c #714835",
"u 	c #EFEFEE",
"v 	c #6D4632",
"w 	c #8A694D",
"x 	c #A17E5E",
"y 	c #A17E5F",
"z 	c #4D2415",
"A 	c #4E2515",
"B 	c #4E2415",
"C 	c #4D2314",
"D 	c #6C4531",
"E 	c #977457",
"F 	c #906E51",
"G 	c #734B36",
"H 	c #562F1E",
"I 	c #724B36",
"J 	c #FFFFFF",
"K 	c #997558",
"L 	c #5E3A28",
"M 	c #9D7A5B",
"N 	c #5F3C29",
"O 	c #684331",
"P 	c #552D1D",
"Q 	c #927255",
"R 	c #5C3725",
"S 	c #937356",
"T 	c #6E5A49",
"U 	c #69594A",
"V 	c #98785B",
"W 	c #5A3523",
"X 	c #6E5B4B",
"Y 	c #68584A",
"Z 	c #5B3624",
"` 	c #967356",
" .	c #7B553E",
"..	c #917154",
"+.	c #8F6E51",
"@.	c #8C6B4E",
"#.	c #957356",
"$.	c #8D6C4F",
"%.	c #4A2516",
"&.	c #512919",
"*.	c #77503B",
"=.	c #86654A",
"-.	c #8E6C4F",
";.	c #78523C",
">.	c #674230",
",.	c #704835",
"'.	c #754F39",
").	c #704834",
"!.	c #B8AEA5",
"~.	c #86847F",
"{.	c #856549",
"].	c #5A3624",
"^.	c #4F4E4E",
"/.	c #937154",
"(.	c #9B795A",
"_.	c #9F7C5E",
":.	c #8D6C50",
"<.	c #957255",
"[.	c #9C7A5B",
"}.	c #502718",
"|.	c #6E4733",
"1.	c #8A684D",
"2.	c #947155",
"3.	c #562E1E",
"4.	c #FACC64",
"5.	c #593321",
"6.	c #593322",
"7.	c #957256",
"8.	c #552D1E",
"9.	c #856449",
"0.	c #5D3927",
"a.	c #4D2515",
"b.	c #704935",
"c.	c #6F5C4B",
"d.	c #97775A",
"e.	c #705C4B",
"f.	c #685849",
"g.	c #98775A",
"h.	c #8E6C50",
"i.	c #76513B",
"j.	c #704936",
"k.	c #67422F",
"l.	c #724A35",
"m.	c #77503A",
"n.	c #6B4431",
"o.	c #714834",
"p.	c #836449",
"q.	c #78523B",
"r.	c #593422",
"s.	c #754E39",
"t.	c #826449",
"u.	c #764F39",
"v.	c #4F2717",
"w.	c #512918",
"x.	c #4E2516",
". + @ # # $ % + & * = - ; & > , # $ % + ' ) ! & > , ~ ~ ~ ~ ~ ~ ~ ~ & > { # ] ^ + ' ] / ( + @ # # $ % + _ : < + ' # # ] ; + [ } ",
". | @ # # $ % + 1 # 2 - ; & > , # $ % + ' ) ! ~ ~ ~ ~ 3 3 3 3 3 3 ~ ~ ~ ~ ~ ~ ~ ~ ~ ~ / ( | @ # # $ % + 4 ) 5 6 { # ] > ; + [ 7 ",
". 8 , # 9 > % + 1 9 0 - ; & > , # $ % + ' ~ ~ ~ 3 3 3 3 3 3 3 3 3 a a a a ~ 3 3 a a ~ ~ ~ 8 , # 9 > % + ' ) ! & { # ] > ; + [ 7 ",
". & , # $ > % + 1 $ b - ; & > , # $ % + ' ~ ~ ~ 3 3 3 3 3 3 3 3 3 a a a a ~ 3 3 a a ~ ~ ~ & , # $ > % + ' ) ! & , # c > ; + [ 7 ",
". & , # $ > % + 1 $ b - ; & > , # $ % _ ~ 3 3 3 3 3 3 3 3 3 3 3 3 3 a a a 3 3 3 a a a a ~ ~ , # $ > % + ' ) ! & > , # ] ; + [ 7 ",
". & > , # $ % + 1 $ b - ; & > , # $ d ~ 3 3 3 3 3 3 3 3 3 3 3 3 3 a a a 3 3 3 3 3 3 a a a ~ ~ ~ # $ % + ' ) ! & > , # ] ; + [ 7 ",
". & > , # $ % + 1 $ b - ; & > { # $ ~ 3 3 3 3 3 3 3 3 3 3 3 3 3 3 3 3 3 3 3 3 3 3 3 3 3 a a ~ ~ # $ % + ' ) ! & > , # ] ; + [ 7 ",
". & > , # $ % + 1 $ b - ; & > > , ~ 3 3 3 3 3 3 3 3 3 3 3 3 3 3 3 3 3 3 3 3 3 3 3 3 3 3 3 a ~ ~ # $ % + ' ) ! & > , # ] ; + [ 7 ",
". & > , # $ % + 1 $ b - ; & > > , ~ 3 3 3 3 3 3 3 3 3 3 3 3 3 3 3 3 3 3 a 3 3 3 3 3 3 3 3 a e ~ # $ % + ' ) ! & > , # ] ; + [ 7 ",
". & > , # $ % + 1 $ b f % g h h i ~ 3 3 3 3 3 3 3 3 3 3 3 3 3 3 3 3 3 3 a 3 3 3 3 3 3 3 3 a ~ ~ # $ % + ' ) ! & > , # ] ; + [ 7 ",
". & > , # $ % + 1 $ 0 j k l l ~ ~ 3 3 3 3 3 3 3 a 3 3 3 3 a 3 3 3 3 a a a 3 3 3 3 3 ~ ~ ~ a ~ ~ ~ $ % + ' ) ! & > , # ] ; + [ 7 ",
". & > , # $ % + 1 $ b m + 4 n ~ ~ 3 3 3 3 3 3 a a 3 3 a a a 3 3 a a a a ~ 3 3 3 3 3 ~ o ~ ~ a a ~ ~ % + ' ) ! & > , # ] ; + [ 7 ",
". & > , # $ % + 1 $ b ! + ' # ~ e 3 3 3 ~ 3 3 a ~ ~ a ~ ~ ~ 3 3 a a ~ ~ ~ 3 3 ~ ~ ~ ~ o p ~ ~ ~ a ~ % + ' ) ! & > , # ] ; + [ 7 ",
". & > , # $ % + 1 $ b ! 6 { ~ ~ ~ 3 3 a ~ ~ ~ ~ ~ q ~ q q ~ ~ ~ ~ ~ q q ~ ~ ~ ~ p o o o p p e ~ a ~ % + ' ) ! & > , # ] ; + [ 7 ",
". & > , # $ % + 1 $ b ! r , ~ 3 3 3 a a ~ q q q s q s q q s s s q q q q s s s ~ ~ ~ o o p e a a a ~ % + ' ) ! & > , # ] ; + [ 7 ",
". & > , # $ % t 1 $ b ! r , ~ 3 3 3 a a ~ u q q q q q q q q q q q q q q q q s ~ ~ ~ o o p ~ a a a ~ % t 1 ) v w > * x $ ; 1 y 7 ",
". & > , # $ % @ # $ b ! r > ~ 3 3 3 a ~ ~ ~ ~ ~ ~ ~ ~ ~ ~ q ~ ~ ~ ~ ~ ~ ~ ~ s ~ 3 3 ~ p p ~ a a ~ $ % @ # ) z z A B z A z C C z ",
". & > { # $ % 4 # $ b ! r > ~ 3 3 a ~ ~ q q q q q q q ~ ~ ~ ~ q q q q q q ~ ~ ~ a 3 3 ~ ~ 3 a a ~ $ % 4 # ) D + E * * F ^ + G H ",
". & > > , $ % I ' $ b ! r > ~ ~ ~ a a ~ q J J q ~ q q ~ ~ ~ ~ J q ~ q q q ~ s ~ a 3 3 3 3 3 a a ~ ~ % I ' ) v | ' # # ] ; + K L ",
". & > > , $ % + 1 $ b ! r > , ~ ~ 3 a ~ q J J q ~ q q ~ ~ q ~ J q ~ q q q ~ s ~ a 3 3 3 a 3 a a a ~ % + ' ) ! & { # # ] ; + [ 7 ",
". & > > , ] > ^ 1 $ b ! r > , ~ ~ 3 a ~ q J J q ~ q q ~ ~ q ~ J q ~ q q q ~ s ~ a 3 3 3 a 3 a a a ~ > ^ ' ) ! & { # # ] ; + [ 7 ",
". & > > , ] > ^ 1 $ b ! r > , ~ e 3 a ~ q q q q ~ q q ~ ~ q ~ q q ~ q q q ~ s ~ 3 3 3 3 a a a a ~ ~ > ^ ' ) ! & M # # ] ; + [ 7 ",
". & > > , ] > ^ 1 9 0 ! r > ~ ~ e 3 a ~ ~ u q q q q ~ q q q q ~ q q q q ~ q s ~ a 3 a 3 a ~ ~ ~ ~ ] > ^ ' ) ! & > , # ] ; + [ } ",
". & > > , ] > ^ 1 # = ! r > ~ 3 3 3 3 a ~ ~ ~ ~ ~ ~ q q q q q q ~ ~ ~ ~ q q s ~ a 3 a a a ~ > > , ] > ^ @ N 5 & > , # ] ; + [ } ",
"O & > > , ] > ^ 1 # = ! r ~ 3 3 3 3 3 a ~ ~ e q q q q q q q q q q q q q q s s ~ a 3 a a a ~ > > , ] > ^ + P 5 & > , # ] ; + [ } ",
"Q ] > > , ] > ^ 4 # = ! r ~ ~ 3 3 3 a a ~ ~ ~ ~ q q q q q q q q q q s s s ~ ~ ~ a 3 a a ~ ~ > > , ] > ^ _ : 5 & > , # ] ; + [ R ",
"S ] > > , ] > T U V = ! r ~ ~ 3 3 3 a a ~ ~ ~ ~ u u q q q q q q q q s s q ~ ~ ~ a 3 a a ~ ~ > > , ] > ^ 8 W ( & > , # ] ; + [ R ",
"S ] > > , ] > X Y V = ! r > , ~ ~ ~ a a ~ Z ! ~ ~ ~ q q q q q s s s s s ~ ~ 3 3 a a a ~ ~ ] > > , ] > > > / ( & > , # c ; + [ R ",
"S ] > > , $ > > ; 1 = ! r > , # $ ~ a ~ ~ Z ! & > ~ ~ ~ ~ ~ ~ ~ ~ ~ ~ ~ # $ ~ a ~ ~ ~ / ` ] > > , $ > > > / ( & > , # #  .+ [ R ",
"..+.h h i * +.h @.^ P ! r > > , $ ~ ~ ~ $ Z ! & > , # ] ~ s s s q ~ & > , # ~ a ~ ~ ] / #.] > > M # c > $.W ( & > , # #  .+ [ 7 ",
"%.&.l l l &.&.&.&.l z ! r > > , $ *.+ @ $ Z ! & ~ ~ ~ ~ ~ q q s q ~ ~ ~ { # ~ ~ + ' ] / =.> > > > { c -.;.P ! & > , # 9 ; + [ 7 ",
">.,.1 n n c '.+ ).1 2 ! r > > , $ > % @ $ Z ! ~ !.!.!.~ u q q s s q ~ ~.~ # ] ^ + ' ] / {.> > > > > > ^ r ].! & > , # #  .+ [ 7 ",
". + @ # # $ % + ' # = ! r > > , $ > % @ $ Z ! ~ ~.~.~.~ q q q s s s ~ ~.~ # ] ^ + ' ] / ` $ > > > , ] ^ & Z ! & > , # c ; + [ 7 ",
". 6 , # 9 > % + 1 9 0 ! r > > , $ > % @ 9 Z ~ ~.~.~.~.~ q q q q q q ~ ~.^.~ !.^ + ' ] / /.{ +.h h (.+.'.g ].! & > , # ] ; 4 # 7 ",
". & , # $ > % + 1 $ b ! r > > , $ > % K _.) ! ~ ~.~.~.~.~ q s q u ~ ~.^.~ ~ !.^ + ' ] / j &.l l l &.&.j &.z ! & > { # ] ; 4 # 7 ",
". & * # ] > % + 1 $ b D r > > , $ > % _ ' ) ~ s ~ ~.~.~.~.~ s ~ ~ ~.~.~ s ~ !.^ + ' ] / ( ,.1 n n c '.+ ).P 5 & > > * ] ; + [ 7 ",
". & > , # $ % + 1 $ b ` $ > > , $ > % + 1 ~ q s ~ ~.~.~.~.~.~.~.~.~.^.~ q s ^.~ + ' ] / ( + @ # # $ % + ' N 5 & > > , ] ; + [ 7 ",
". & > , # $ % + 1 $ b ` $ > > , $ > ^ ~ ~ u q s ~ ~ ~ ^.e ~.~.^.e e ^.~ q q q q ~ ' ] / ( 6 , # 9 > % + ' ) ! & > > , ] :.^ [ 7 ",
". & > , # $ % + 1 $ b ` $ > > , $ > $.~ ~ q q s ~ ~ ~ ^.^.~.~.^.^.^.^.~ q q s s ~ ' ] / ( & , # $ > % + ' ) ! & > > , ] > ^ [ 7 ",
". & > , # $ % + 1 $ b ` $ > > , ] > ~ u q q s ~ ~ ^.^.^.~.~.~.~.~.^.^.~ ~ q s s ~ 1 ] / ( & * # ] > % + ' ) ! & > > , ] > ^ [ 7 ",
". & > , # $ % + 1 $ b <.c $.$.[._.~ q q q s ~ & ~ ~ ~ ~ ~ ~ ~ ~ ~ ~ ~ ~ { ~ !.q s ~ ~ / ( & > , # $ % + ' ) ! & > > , ] > ^ @ L ",
". & > , # $ % + 1 $ 0 k }.j j ~ ~ q q s s ~ ! & ~ a a a a a a a a e e ~ M ~ !.q q s s ~ ~ ~ > , # $ % + ' ) |.1.> > , ] > ^ _ H ",
". & > , # $ % + 1 $ b D ).E * ~ q q s ~ ~ L ! ~ ~ ~ ~ ~ ~ ~ ~ ~ ~ ~ ~ ~ ~ , ^.~ q q q s ~.~ > , # $ % + ' ) 2.c > > , ] > ^ | 3.",
". & > , # $ % + 1 $ b ! + 1 # # ~ s s ~ ~ ) ! ~ 4.4.4.4.4.4.4.4.4.4.4.p ~ , ] % ~ q s ~ ^.& > , # $ % + ' ) #.] > > , ] > ^ & 5.",
". & > , # $ % + 1 $ b ! & , # c ~ s s ~ ~ ].! ~ o o o o o o o o o o o p ~ , ] > ~ q s ~ ~.& > , # $ % + ' ) #.] > > , ] > > > 6.",
". & > , # $ % + 1 $ b ! r , # ] ~ ~ ~ ~ ~ Z ~ o o o o o p o o o o o o p ~ , ] > ~ ~ ~ ~ ~.& > , # $ % + ' ) #.] > > , $ > > > 6.",
". & > , # $ % _ ' $ b ! r { # $ > ^ + @ $ Z ~ o o o o o o o o o o o o p p ~ ] > ; ' $ / ( & > , # $ % + ' ) 7.] > > { # ] > > 5.",
". & > , # $ % 1 # $ b ! r > , # $ ^ + @ $ ~ o o o o o p o o o o o o o o p ~ ] > ; @ # 7 ( & > , # $ % + ' ) =.> > > > , $ > % 8.",
". & > { # $ % 1 # $ b ! r > , # $ ^ + @ $ ~ o o o o o o o o o o o o o o p p a ~ ; ).[ 7 ( & > , # $ % + ' ) 9.$.$.$.$.$.:.% & W ",
". & > > , $ % _ ' $ b ! r > , # $ ^ + @ $ a o o o o o o o o o o o o o o p p a ~ ; | 1 0.( & > , # $ % + ' ) l }.j j j &.j k }.a.",
". & > > , $ ^ + 1 $ b ! r > , # $ ^ + ~ ~ o o o o o o p o o o o o o o o o p a ~ ; 6 ; : ( & > , # $ % _ ' ) m b.E * * +.^ ).+ 3.",
". & > > , ] > % 1 $ b ! r > , # $ ^ + ~ ~ o o o o o o o o o o o o o o o p p p p ~ > % 8.( & > , # $ % 1 # ) v + 1 # # ] *.+ @ L ",
". & > > , ] > ^ 1 $ b ! r > , # $ ^ + ~ ~ ~ o o o p p o o o o o o o p p p p p p ~ > % 8.( & > { # $ % 1 # ) ! & , # c > c.Y d.7 ",
". & > > , ] > ^ 1 9 0 ! r > , # $ ^ + @ $ Z ~ ~ ~ ~ ~ o o o o o o o ~ ~ ~ ~ ~ ~ > ; _ : ( & > > , $ % _ ' ) ! & { # ] > e.f.g.7 ",
". & > > , ] > ^ 4 # = ! r > , # $ ^ + @ $ Z v | ' ~ ~ ~ ~ ~ ~ ~ ~ ~ ~ > > > , ] h.^ r W ( & > > , $ ^ + ' ) ! & { # ] > i.j.[ 7 ",
"k.& > > , ] > ^ l.@ = ! r > , # $ ^ + @ $ Z ! & { ~ e ~ e ~ e ~ ~ e e > > > > > ; + w / ( & > > , ] > % ' ) ! & > , # ] ; + [ 7 ",
"S ] > > , ] > ^ + 1 = ! r > , # $ ^ + @ $ Z ! & { # ] ~ q ~ q ~ ~ 7.] > > > * ] ; + w / ( & > > , ] > ^ ' ) ! & > , # ] ; + [ 7 ",
"S ] > > , ] > m.6 ; P ! r > , # $ ^ _ @ $ Z ! & M # $ ~ q ~ q ~ ~ 7.] > > > , ] ; + w / ( & > > , ] > ^ ' ) ! & > , # ] ; + [ 7 ",
"S ] > > , ] > $.> ^ P ! r > , # $ ^ 4 # $ Z ! & > , # ~ q ~ q ~ ~ 7.] > > > , ] $.^ & W ( & > > , ] > ^ 4 ) 5 & > , # ] ; + [ 7 ",
"S ] > > , ] > > > ^ P ! r > * # $ ^ [ # $ Z ! & ~ ~ ~ ~ q ~ q ~ ~ ~ ~ ] > > , ] > ^ + : n.& > > , ] > ^ _ : 5 & > , # ] ; + [ 7 ",
"S ] > > { # ] > > m.P ! r > > , $ ^ o.' $ Z ! ~ ~ J u s ~ ~ ~ q u s ~ ~ > , # ] > m.+ 8.` ] > > , ] > ^ + 8.5 & > , # ] ; + [ 7 ",
"p.> > > > { c $.q.& r.! r > > , $ ; + @ $ Z ! ~ ~ J u s ~ ~ ~ u u q ~ ~ { * +.@.@.@.s.P ` ] > > , ] > m.6 W ( & > , # ] ; + [ 7 ",
"t.> > > > +.> *.8 > b ! r > > , $ $.u.@ $ Z ~ ~ ~ ~ ~ ~ ~ ~ ~ ~ ~ ~ ~ ~ ~ j &.v.w.j j x.` ] > > , ] > $.> / ( & > , # ] ; + [ 7 ",
"t.> > > > { ] ^ r > b ! r > > , $ > % @ $ Z ~ ~ ~ ~ ~ ~ ~ ~ ~ ~ ~ ~ ~ ~ ~ :.'.+ + 6 '.P ` ] > > , ] > > > / ( & > , # ] ; + [ 7 "};
