/* XPM */
static char * wall_xpm[] = {
"64 64 74 1",
" 	c None",
".	c #6C6C6C",
"+	c #9E5330",
"@	c #6E3922",
"#	c #582E1B",
"$	c #482315",
"%	c #733A3A",
"&	c #3E2121",
"*	c #6F2F16",
"=	c #3D1D0E",
"-	c #8D4A4A",
";	c #4E2B2B",
">	c #311A10",
",	c #B74B66",
"'	c #732534",
")	c #8A2929",
"!	c #642020",
"~	c #4B1A1A",
"{	c #762424",
"]	c #3F1616",
"^	c #6268A1",
"/	c #323560",
"(	c #5B859E",
"_	c #3E6177",
":	c #304859",
"<	c #864A2D",
"[	c #583525",
"}	c #643972",
"|	c #37213E",
"1	c #B8CCC1",
"2	c #6B7D72",
"3	c #166F3A",
"4	c #0E3D22",
"5	c #137533",
"6	c #0D411E",
"7	c #6F1646",
"8	c #3D0E29",
"9	c #B7AEB4",
"0	c #766571",
"a	c #AB465C",
"b	c #622734",
"c	c #2A8B4D",
"d	c #235C37",
"e	c #7B5387",
"f	c #523A59",
"g	c #C3D3C9",
"h	c #85928A",
"i	c #28160D",
"j	c #2D8654",
"k	c #25583C",
"l	c #27150D",
"m	c #29160E",
"n	c #331B10",
"o	c #752813",
"p	c #41180D",
"q	c #46687B",
"r	c #30424B",
"s	c #B2B7AE",
"t	c #6D7665",
"u	c #46AB46",
"v	c #276227",
"w	c #306659",
"x	c #193F37",
"y	c #892C2C",
"z	c #612222",
"A	c #4A1A1A",
"B	c #875050",
"C	c #4B2D2D",
"D	c #2C2679",
"E	c #1F1E4A",
"F	c #8B412A",
"G	c #5C2F23",
"H	c #5E7C8F",
"I	c #475964",
"................................................................",
"+++++++++++++++++++++++++++++++++++++++++++++++++++++++++++++++@",
"++@@@@@@@@@@@@@@@@@@@@@@@@@@@@@@@@@@@@@@@@@@@@@@@@@@@@@@@@@@@@@#",
"++@@@@@@@@@@@@@@@@@@@@@@@@@@@@@@@@@@@@@@@@@@@@@@@@@@@@@@@@@@@@@#",
"++@@@@@@@@@@@@@@@@@@@@@@@@@@@@@@@@@@@@@@@@@@@@@@@@@@@@@@@@@@@@@#",
"++@@##$$$$$$%%&&$$$$$$$$$$$$$$$$$$$$$$$$$$$$$$$$$****==$$$$++@@#",
"++@@##$$--;;%%&&>>$$,,''))!!~~$${{]]^^///(___:$$$****==>>$$++@@#",
"++@@##$$--;;%%&&>>$$,,''))!!~~$${{]]^^///(___:$$$****==>>$$++@@#",
"++@@##$$--;;%%&&>>$$,,''))!!~~$${{]]^^///(___:$$$****==>>$$++@@#",
"++@@##$$--;;%%&&>>$$,,''))!!~~>>{{]]^^///(___:>>>****==>>$$++@@#",
"++@@##$$--;;%%&&>>$$,,''))!!~~>>{{]]^^///(___:>>>****==>>$$++@@#",
"++@@##$$--;;%%&&>>,,''>>))!!~~>>{{]]^^///(___:>>><<<<[[>>$$++@@#",
"++@@##$$--;;%%&&>>,,''>>))!!~~>>{{]]^^///(___:>>><<<<[[>>$$++@@#",
"++@@##$$--;;%%&&>>,,''>>))!!~~>>{{]]^^///(___:>>><<<<[[>>$$++@@#",
"++@@##$$--;;%%&&>>,,''>>))!!~~>>{{]]^^///(___:>>><<<<[[>>$$++@@#",
"++@@##$$--;;%%&&,,''>>$$))!!~~>>{{]]^^///(___:>>><<<<[[>>$$++@@#",
"++@@##$$--;;%%&&,,''>>$$))!!~~>>{{]]^^///(___:>>><<<<[[>>$$++@@#",
"++@@##$$--;;%%&&,,''>>$$))!!~~>>{{]]^^///(___:>>>****==>>$$++@@#",
"++@@##$$--;;%%&&,,''>>$$))!!~~>>{{]]^^///(___:>>>****==>>$$++@@#",
"++@@##+++++++++++++++++++++++++++++++++++++++++++++++++++++++@@#",
"++@@##+++++++++++++++++++++++++++++++++++++++++++++++++++++++@@#",
"++@@##@@@@@@@@@@@@@@@@@@@@@@@@@@@@@@@@@@@@@@@@@@@@@@@@@@@@@++@@#",
"++@@##@@@@@@@@@@@@@@@@@@@@@@@@@@@@@@@@@@@@@@@@@@@@@@@@@@@@@++@@#",
"++@@##$$$$$$$$}}||$$$$$$$$$$$$1122}}||$$$$3333444$$$$$$$$$$++@@#",
"++@@##$$$$$$$$}}||$$$$$$$$$$$$1122}}||$$$$3333444$$$$$$$$$$++@@#",
"++@@##$$$$5566}}||7788$$$$$$$$1122}}||777833334449000aabb$$++@@#",
"++@@##$$$$5566}}||7788$$$$$$$$1122}}||777833334449000aabb$$++@@#",
"++@@##$$$$ccddeeff7788>>$$$$$$1122eeff777833334449000aabb$$++@@#",
"++@@##$$$$ccddeeff7788>>$$$$$$1122eeff777833334449000aabb$$++@@#",
"++@@##$$$$ccddeeff7788>>$$$$gghhiieeff7778jjjjkkk9000aabb$$++@@#",
"++@@##$$$$ccddeeff7788>>$$$$gghhiieeff7778jjjjkkk9000aabb$$++@@#",
"++@@##$$$$5566eeff>>7788$$$$gghhll}}||7778jjjjkkk9000aabb$$++@@#",
"++@@##$$$$5566eeff>>7788$$$$gghhll}}||7778jjjjkkk9000aabb$$++@@#",
"++@@##$$$$5566}}||>>7788>>$$1122mm}}||7778jjjjkkk9000aabb$$++@@#",
"++@@##$$$$5566}}||>>7788>>$$1122mm}}||7778jjjjkkk9000aabb$$++@@#",
"++@@##$$$$5566}}||>>7788>>$$1122nn}}||777833334449000aabb$$++@@#",
"++@@##$$$$5566}}||>>7788>>$$1122nn}}||777833334449000aabb$$++@@#",
"++@@##+++++++++++++++++++++++++++++++++++++++++++++++++++++++@@#",
"++@@##+++++++++++++++++++++++++++++++++++++++++++++++++++++++@@#",
"++@@##@@@@@@@@@@@@@@@@@@@@@@@@@@@@@@@@@@@@@@@@@@@@@@@@@@@@@++@@#",
"++@@##@@@@@@@@@@@@@@@@@@@@@@@@@@@@@@@@@@@@@@@@@@@@@@@@@@@@@++@@#",
"++@@##$$****==$$$$$$$$$$$$$$$$oopp$$$$$$$$$$$qrrr$$$$$$$$$$++@@#",
"++@@##$$****==$$$$$$$$$$$$$$$$oopp$$$$$$$$$$$qrrr$$$$$$$$$$++@@#",
"++@@##$$****==ssttuuvv$$$$wwxxooppyyzzAAABCCCqrrrDEEE$$$$$$++@@#",
"++@@##$$****==ssttuuvv$$$$wwxxooppyyzzAAABCCCqrrrDEEE$$$$$$++@@#",
"++@@##$$****==ssttuuvv>>$$wwxxFFGGyyzzAAABCCCHIIIDEEE>>$$$$++@@#",
"++@@##$$****==ssttuuvv>>$$wwxxFFGGyyzzAAABCCCHIIIDEEE>>$$$$++@@#",
"++@@##$$<<<<[[ssttuuvv>>wwxx>>FFGGyyzzAAABCCCHIIIDEEE>>$$$$++@@#",
"++@@##$$<<<<[[ssttuuvv>>wwxx>>FFGGyyzzAAABCCCHIIIDEEE>>$$$$++@@#",
"++@@##$$<<<<[[ssttuuvv>>wwxx>>ooppyyzzAAABCCCHIII>DDDEE$$$$++@@#",
"++@@##$$<<<<[[ssttuuvv>>wwxx>>ooppyyzzAAABCCCHIII>DDDEE$$$$++@@#",
"++@@##$$<<<<[[ssttuuvvwwxx>>$$ooppyyzzAAABCCCqrrr>DDDEE>>$$++@@#",
"++@@##$$<<<<[[ssttuuvvwwxx>>$$ooppyyzzAAABCCCqrrr>DDDEE>>$$++@@#",
"++@@##$$****==ssttuuvvwwxx>>$$ooppyyzzAAABCCCqrrr>DDDEE>>$$++@@#",
"++@@##$$****==ssttuuvvwwxx>>$$ooppyyzzAAABCCCqrrr>DDDEE>>$$++@@#",
"++@@##+++++++++++++++++++++++++++++++++++++++++++++++++++++++@@#",
"++@@##+++++++++++++++++++++++++++++++++++++++++++++++++++++++@@#",
"++@@@@@@@@@@@@@@@@@@@@@@@@@@@@@@@@@@@@@@@@@@@@@@@@@@@@@@@@@@@@@#",
"++@@@@@@@@@@@@@@@@@@@@@@@@@@@@@@@@@@@@@@@@@@@@@@@@@@@@@@@@@@@@@#",
"++@@@@@@@@@@@@@@@@@@@@@@@@@@@@@@@@@@@@@@@@@@@@@@@@@@@@@@@@@@@@@#",
"++@@@@@@@@@@@@@@@@@@@@@@@@@@@@@@@@@@@@@@@@@@@@@@@@@@@@@@@@@@@@@#",
"++@@@@@@@@@@@@@@@@@@@@@@@@@@@@@@@@@@@@@@@@@@@@@@@@@@@@@@@@@@@@@#",
"++@@@@@@@@@@@@@@@@@@@@@@@@@@@@@@@@@@@@@@@@@@@@@@@@@@@@@@@@@@@@@#",
"@@##############################################################"};
